Sources: Video - Gaid-Park.na.Gudzone.2012.DVD5 ... Audio - DVDSCR.x264.AAC-NOGRP
 
http://www.imdb.com/title/tt1477855/

The story of the love affair between FDR and his distant cousin Margaret "Daisy" Suckley, centered around the weekend in 1939 when the King and Queen of the United Kingdom visited upstate New York.

General
Complete name                            : Hyde Park On Hudson 2012 R5 x264 AAC-OFFLiNE.mp4
Format                                   : MPEG-4
Format profile                           : Base Media
Codec ID                                 : isom
File size                                : 758 MiB
Duration                                 : 1h 30mn
Overall bit rate mode                    : Variable
Overall bit rate                         : 1 171 Kbps
Encoded date                             : UTC 2013-03-15 02:42:32
Tagged date                              : UTC 2013-03-15 02:42:32

Video
ID                                       : 1
Format                                   : AVC
Format/Info                              : Advanced Video Codec
Format profile                           : High@L4.1
Format settings, CABAC                   : Yes
Format settings, ReFrames                : 3 frames
Codec ID                                 : avc1
Codec ID/Info                            : Advanced Video Coding
Duration                                 : 1h 30mn
Bit rate mode                            : Variable
Bit rate                                 : 1 037 Kbps
Maximum bit rate                         : 40.0 Mbps
Width                                    : 720 pixels
Height                                   : 304 pixels
Display aspect ratio                     : 2.35:1
Frame rate mode                          : Constant
Frame rate                               : 25.000 fps
Color space                              : YUV
Chroma subsampling                       : 4:2:0
Bit depth                                : 8 bits
Scan type                                : Progressive
Bits/(Pixel*Frame)                       : 0.190
Stream size                              : 670 MiB (88%)
Writing library                          : x264 core 130 r2273 b3065e6

Audio
ID                                       : 2
Format                                   : AAC
Format/Info                              : Advanced Audio Codec
Format profile                           : LC
Codec ID                                 : 40
Duration                                 : 1h 30mn
Bit rate mode                            : Variable
Bit rate                                 : 132 Kbps
Maximum bit rate                         : 157 Kbps
Channel(s)                               : 2 channels
Channel positions                        : Front: L R
Sampling rate                            : 48.0 KHz
Compression mode                         : Lossy
Stream size                              : 84.7 MiB (11%)
Language                                 : English
Encoded date                             : UTC 2013-03-15 02:12:52
Tagged date                              : UTC 2013-03-15 02:44:33